<svg xmlns="http://www.w3.org/2000/svg" width="980" height="560" viewBox="0 0 980 560" role="img">
<style>
  text { font-family: 'Noto Sans CJK SC','Microsoft YaHei','PingFang SC','WenQuanYi Micro Hei',Arial,sans-serif; fill: #0f172a; }
  .title { font-size: 24px; font-weight: 800; }
  .subtitle { font-size: 13px; fill: #64748b; }
  .label { font-size: 12px; fill: #0f172a; }
  .muted { font-size: 11px; fill: #64748b; }
  .axis { stroke: #e2e8f0; stroke-width: 1; }
</style>
<rect width="100%" height="100%" fill="#f8fafc"/>
<rect x="14" y="14" width="952" height="532" rx="18" fill="#ffffff"/>
<text x="42" y="52" class="title">002281 光迅科技 十大股东占比</text>
<text x="42" y="76" class="subtitle">东方财富股东分析口径；饼图含前十大股东及其他/未披露占比。</text>
<path d="M 295.0 305.0 L 295.0 137.0 A 168.0 168.0 0 0 1 423.6 413.1 Z" fill="#2563eb" opacity="0.9" stroke="#ffffff" stroke-width="2"/>
<text x="389.4" y="261.0" text-anchor="middle" class="label" font-weight="700">36.13%</text>
<path d="M 295.0 305.0 L 423.6 413.1 A 168.0 168.0 0 0 1 396.0 439.3 Z" fill="#16a34a" opacity="0.9" stroke="#ffffff" stroke-width="2"/>
<path d="M 295.0 305.0 L 396.0 439.3 A 168.0 168.0 0 0 1 377.4 451.4 Z" fill="#f59e0b" opacity="0.9" stroke="#ffffff" stroke-width="2"/>
<path d="M 295.0 305.0 L 377.4 451.4 A 168.0 168.0 0 0 1 360.0 459.9 Z" fill="#7c3aed" opacity="0.9" stroke="#ffffff" stroke-width="2"/>
<path d="M 295.0 305.0 L 360.0 459.9 A 168.0 168.0 0 0 1 354.6 462.1 Z" fill="#0891b2" opacity="0.9" stroke="#ffffff" stroke-width="2"/>
<path d="M 295.0 305.0 L 354.6 462.1 A 168.0 168.0 0 0 1 349.3 464.0 Z" fill="#db2777" opacity="0.9" stroke="#ffffff" stroke-width="2"/>
<path d="M 295.0 305.0 L 349.3 464.0 A 168.0 168.0 0 0 1 344.9 465.4 Z" fill="#475569" opacity="0.9" stroke="#ffffff" stroke-width="2"/>
<path d="M 295.0 305.0 L 344.9 465.4 A 168.0 168.0 0 0 1 340.4 466.7 Z" fill="#059669" opacity="0.9" stroke="#ffffff" stroke-width="2"/>
<path d="M 295.0 305.0 L 340.4 466.7 A 168.0 168.0 0 0 1 336.4 467.8 Z" fill="#2563eb" opacity="0.9" stroke="#ffffff" stroke-width="2"/>
<path d="M 295.0 305.0 L 336.4 467.8 A 168.0 168.0 0 0 1 333.2 468.6 Z" fill="#16a34a" opacity="0.9" stroke="#ffffff" stroke-width="2"/>
<path d="M 295.0 305.0 L 333.2 468.6 A 168.0 168.0 0 1 1 295.0 137.0 Z" fill="#f59e0b" opacity="0.9" stroke="#ffffff" stroke-width="2"/>
<text x="191.5" y="316.9" text-anchor="middle" class="label" font-weight="700">53.65%</text>
<rect x="520" y="106" width="18" height="18" rx="4" fill="#2563eb" opacity="0.9"/>
<text x="548" y="120" class="label">1 烽火科技集团有限公司</text>
<text x="926" y="120" text-anchor="end" class="label">36.13%</text>
<rect x="520" y="140" width="18" height="18" rx="4" fill="#16a34a" opacity="0.9"/>
<text x="548" y="154" class="label">2 国新投资有限公司</text>
<text x="926" y="154" text-anchor="end" class="label">3.61%</text>
<rect x="520" y="174" width="18" height="18" rx="4" fill="#f59e0b" opacity="0.9"/>
<text x="548" y="188" class="label">3 中国信息通信科技集团有限公司</text>
<text x="926" y="188" text-anchor="end" class="label">2.10%</text>
<rect x="520" y="208" width="18" height="18" rx="4" fill="#7c3aed" opacity="0.9"/>
<text x="548" y="222" class="label">4 香港中央结算有限公司</text>
<text x="926" y="222" text-anchor="end" class="label">1.84%</text>
<rect x="520" y="242" width="18" height="18" rx="4" fill="#0891b2" opacity="0.9"/>
<text x="548" y="256" class="label">5 卜浩文</text>
<text x="926" y="256" text-anchor="end" class="label">0.55%</text>
<rect x="520" y="276" width="18" height="18" rx="4" fill="#db2777" opacity="0.9"/>
<text x="548" y="290" class="label">6 中国工商银行股份有限公司-易方达中证人工智能</text>
<text x="926" y="290" text-anchor="end" class="label">0.53%</text>
<rect x="520" y="310" width="18" height="18" rx="4" fill="#475569" opacity="0.9"/>
<text x="548" y="324" class="label">7 中国工商银行股份有限公司-国泰中证全指通信设</text>
<text x="926" y="324" text-anchor="end" class="label">0.44%</text>
<rect x="520" y="344" width="18" height="18" rx="4" fill="#059669" opacity="0.9"/>
<text x="548" y="358" class="label">8 中国农业银行股份有限公司-中证500交易型开</text>
<text x="926" y="358" text-anchor="end" class="label">0.44%</text>
<rect x="520" y="378" width="18" height="18" rx="4" fill="#2563eb" opacity="0.9"/>
<text x="548" y="392" class="label">9 全国社保基金五零二组合</text>
<text x="926" y="392" text-anchor="end" class="label">0.40%</text>
<rect x="520" y="412" width="18" height="18" rx="4" fill="#16a34a" opacity="0.9"/>
<text x="548" y="426" class="label">10 上海浦东发展银行股份有限公司-永赢数字经济</text>
<text x="926" y="426" text-anchor="end" class="label">0.31%</text>
<rect x="520" y="446" width="18" height="18" rx="4" fill="#f59e0b" opacity="0.9"/>
<text x="548" y="460" class="label">其他/未披露</text>
<text x="926" y="460" text-anchor="end" class="label">53.65%</text>
</svg>
