<svg xmlns="http://www.w3.org/2000/svg" width="1120" height="260" viewBox="0 0 1120 260" role="img">
<style>
  text { font-family: 'Noto Sans CJK SC','Microsoft YaHei','PingFang SC','WenQuanYi Micro Hei',Arial,sans-serif; fill: #0f172a; }
  .title { font-size: 24px; font-weight: 800; }
  .subtitle { font-size: 13px; fill: #64748b; }
  .label { font-size: 12px; fill: #0f172a; }
  .muted { font-size: 11px; fill: #64748b; }
  .axis { stroke: #e2e8f0; stroke-width: 1; }
</style>
<rect width="100%" height="100%" fill="#f8fafc"/>
<rect x="14" y="14" width="1092" height="232" rx="18" fill="#ffffff"/>
<text x="42" y="52" class="title">002008 大族激光 十大股东占比</text>
<text x="42" y="76" class="subtitle">东方财富股东分析口径；按排名展示最新报告期前十大股东占比。</text>
<line x1="320.3" y1="80" x2="320.3" y2="208" stroke="#64748b" stroke-width="1.2" stroke-dasharray="4 4"/>
<line x1="270.0" y1="82" x2="270.0" y2="206" class="axis"/>
<text x="270.0" y="228" text-anchor="middle" class="muted">-1.18%</text>
<line x1="320.3" y1="82" x2="320.3" y2="206" class="axis"/>
<text x="320.3" y="228" text-anchor="middle" class="muted">0.00%</text>
<line x1="1000.0" y1="82" x2="1000.0" y2="206" class="axis"/>
<text x="1000.0" y="228" text-anchor="middle" class="muted">15.92%</text>
<text x="42" y="116" class="label">1 大族控股集团有限公司</text>
<rect x="320.3" y="101" width="629.3" height="18" rx="5" fill="#2563eb" opacity="0.88"/>
<text x="956.7" y="116" text-anchor="start" class="label">14.74%</text>
<text x="42" y="150" class="label">2 香港中央结算有限公司</text>
<rect x="320.3" y="135" width="422.5" height="18" rx="5" fill="#2563eb" opacity="0.88"/>
<text x="749.9" y="150" text-anchor="start" class="label">9.90%</text>
<text x="42" y="184" class="label">3 高云峰</text>
<rect x="320.3" y="169" width="399.5" height="18" rx="5" fill="#2563eb" opacity="0.88"/>
<text x="726.8" y="184" text-anchor="start" class="label">9.36%</text>
</svg>
