<svg xmlns="http://www.w3.org/2000/svg" width="980" height="560" viewBox="0 0 980 560" role="img">
<style>
  text { font-family: 'Noto Sans CJK SC','Microsoft YaHei','PingFang SC','WenQuanYi Micro Hei',Arial,sans-serif; fill: #0f172a; }
  .title { font-size: 24px; font-weight: 800; }
  .subtitle { font-size: 13px; fill: #64748b; }
  .label { font-size: 12px; fill: #0f172a; }
  .muted { font-size: 11px; fill: #64748b; }
  .axis { stroke: #e2e8f0; stroke-width: 1; }
</style>
<rect width="100%" height="100%" fill="#f8fafc"/>
<rect x="14" y="14" width="952" height="532" rx="18" fill="#ffffff"/>
<text x="42" y="52" class="title">688668 鼎通科技 十大流通股东占比</text>
<text x="42" y="76" class="subtitle">东方财富股东分析口径；饼图含前十大股东及其他/未披露占比。</text>
<path d="M 295.0 305.0 L 295.0 137.0 A 168.0 168.0 0 0 1 422.2 414.7 Z" fill="#2563eb" opacity="0.9" stroke="#ffffff" stroke-width="2"/>
<text x="389.7" y="261.6" text-anchor="middle" class="label" font-weight="700">36.33%</text>
<path d="M 295.0 305.0 L 422.2 414.7 A 168.0 168.0 0 0 1 374.5 453.0 Z" fill="#16a34a" opacity="0.9" stroke="#ffffff" stroke-width="2"/>
<text x="360.2" y="386.3" text-anchor="middle" class="label" font-weight="700">5.83%</text>
<path d="M 295.0 305.0 L 374.5 453.0 A 168.0 168.0 0 0 1 338.1 467.4 Z" fill="#f59e0b" opacity="0.9" stroke="#ffffff" stroke-width="2"/>
<path d="M 295.0 305.0 L 338.1 467.4 A 168.0 168.0 0 0 1 323.2 470.6 Z" fill="#7c3aed" opacity="0.9" stroke="#ffffff" stroke-width="2"/>
<path d="M 295.0 305.0 L 323.2 470.6 A 168.0 168.0 0 0 1 312.9 472.0 Z" fill="#0891b2" opacity="0.9" stroke="#ffffff" stroke-width="2"/>
<path d="M 295.0 305.0 L 312.9 472.0 A 168.0 168.0 0 0 1 304.4 472.7 Z" fill="#db2777" opacity="0.9" stroke="#ffffff" stroke-width="2"/>
<path d="M 295.0 305.0 L 304.4 472.7 A 168.0 168.0 0 0 1 297.4 473.0 Z" fill="#475569" opacity="0.9" stroke="#ffffff" stroke-width="2"/>
<path d="M 295.0 305.0 L 297.4 473.0 A 168.0 168.0 0 0 1 290.4 472.9 Z" fill="#059669" opacity="0.9" stroke="#ffffff" stroke-width="2"/>
<path d="M 295.0 305.0 L 290.4 472.9 A 168.0 168.0 0 0 1 284.0 472.6 Z" fill="#2563eb" opacity="0.9" stroke="#ffffff" stroke-width="2"/>
<path d="M 295.0 305.0 L 284.0 472.6 A 168.0 168.0 0 0 1 278.0 472.1 Z" fill="#16a34a" opacity="0.9" stroke="#ffffff" stroke-width="2"/>
<path d="M 295.0 305.0 L 278.0 472.1 A 168.0 168.0 0 0 1 295.0 137.0 Z" fill="#f59e0b" opacity="0.9" stroke="#ffffff" stroke-width="2"/>
<text x="191.0" y="299.7" text-anchor="middle" class="label" font-weight="700">48.39%</text>
<rect x="520" y="106" width="18" height="18" rx="4" fill="#2563eb" opacity="0.9"/>
<text x="548" y="120" class="label">1 东莞市鼎宏骏盛投资有限公司</text>
<text x="926" y="120" text-anchor="end" class="label">36.33%</text>
<rect x="520" y="140" width="18" height="18" rx="4" fill="#16a34a" opacity="0.9"/>
<text x="548" y="154" class="label">2 罗宏霞</text>
<text x="926" y="154" text-anchor="end" class="label">5.83%</text>
<rect x="520" y="174" width="18" height="18" rx="4" fill="#f59e0b" opacity="0.9"/>
<text x="548" y="188" class="label">3 王成海</text>
<text x="926" y="188" text-anchor="end" class="label">3.72%</text>
<rect x="520" y="208" width="18" height="18" rx="4" fill="#7c3aed" opacity="0.9"/>
<text x="548" y="222" class="label">4 交通银行股份有限公司-德邦鑫星价值灵活配置混</text>
<text x="926" y="222" text-anchor="end" class="label">1.44%</text>
<rect x="520" y="242" width="18" height="18" rx="4" fill="#0891b2" opacity="0.9"/>
<text x="548" y="256" class="label">5 基本养老保险基金二零零一组合</text>
<text x="926" y="256" text-anchor="end" class="label">0.99%</text>
<rect x="520" y="276" width="18" height="18" rx="4" fill="#db2777" opacity="0.9"/>
<text x="548" y="290" class="label">6 基本养老保险基金一九零六组合</text>
<text x="926" y="290" text-anchor="end" class="label">0.80%</text>
<rect x="520" y="310" width="18" height="18" rx="4" fill="#475569" opacity="0.9"/>
<text x="548" y="324" class="label">7 香港中央结算有限公司</text>
<text x="926" y="324" text-anchor="end" class="label">0.67%</text>
<rect x="520" y="344" width="18" height="18" rx="4" fill="#059669" opacity="0.9"/>
<text x="548" y="358" class="label">8 中国农业银行股份有限公司-新华优选分红混合型</text>
<text x="926" y="358" text-anchor="end" class="label">0.66%</text>
<rect x="520" y="378" width="18" height="18" rx="4" fill="#2563eb" opacity="0.9"/>
<text x="548" y="392" class="label">9 基本养老保险基金一二零二组合</text>
<text x="926" y="392" text-anchor="end" class="label">0.60%</text>
<rect x="520" y="412" width="18" height="18" rx="4" fill="#16a34a" opacity="0.9"/>
<text x="548" y="426" class="label">10 中国农业银行股份有限公司-宝盈转型动力灵活</text>
<text x="926" y="426" text-anchor="end" class="label">0.57%</text>
<rect x="520" y="446" width="18" height="18" rx="4" fill="#f59e0b" opacity="0.9"/>
<text x="548" y="460" class="label">其他/未披露</text>
<text x="926" y="460" text-anchor="end" class="label">48.39%</text>
</svg>
