<svg xmlns="http://www.w3.org/2000/svg" width="980" height="560" viewBox="0 0 980 560" role="img">
<style>
  text { font-family: 'Noto Sans CJK SC','Microsoft YaHei','PingFang SC','WenQuanYi Micro Hei',Arial,sans-serif; fill: #0f172a; }
  .title { font-size: 24px; font-weight: 800; }
  .subtitle { font-size: 13px; fill: #64748b; }
  .label { font-size: 12px; fill: #0f172a; }
  .muted { font-size: 11px; fill: #64748b; }
  .axis { stroke: #e2e8f0; stroke-width: 1; }
</style>
<rect width="100%" height="100%" fill="#f8fafc"/>
<rect x="14" y="14" width="952" height="532" rx="18" fill="#ffffff"/>
<text x="42" y="52" class="title">300975 商络电子 十大股东占比</text>
<text x="42" y="76" class="subtitle">东方财富股东分析口径；饼图含前十大股东及其他/未披露占比。</text>
<path d="M 295.0 305.0 L 295.0 137.0 A 168.0 168.0 0 0 1 430.7 404.1 Z" fill="#2563eb" opacity="0.9" stroke="#ffffff" stroke-width="2"/>
<text x="387.9" y="257.8" text-anchor="middle" class="label" font-weight="700">35.04%</text>
<path d="M 295.0 305.0 L 430.7 404.1 A 168.0 168.0 0 0 1 372.9 453.9 Z" fill="#16a34a" opacity="0.9" stroke="#ffffff" stroke-width="2"/>
<text x="363.0" y="383.9" text-anchor="middle" class="label" font-weight="700">7.29%</text>
<path d="M 295.0 305.0 L 372.9 453.9 A 168.0 168.0 0 0 1 352.5 462.9 Z" fill="#f59e0b" opacity="0.9" stroke="#ffffff" stroke-width="2"/>
<path d="M 295.0 305.0 L 352.5 462.9 A 168.0 168.0 0 0 1 339.6 467.0 Z" fill="#7c3aed" opacity="0.9" stroke="#ffffff" stroke-width="2"/>
<path d="M 295.0 305.0 L 339.6 467.0 A 168.0 168.0 0 0 1 332.0 468.9 Z" fill="#0891b2" opacity="0.9" stroke="#ffffff" stroke-width="2"/>
<path d="M 295.0 305.0 L 332.0 468.9 A 168.0 168.0 0 0 1 324.3 470.4 Z" fill="#db2777" opacity="0.9" stroke="#ffffff" stroke-width="2"/>
<path d="M 295.0 305.0 L 324.3 470.4 A 168.0 168.0 0 0 1 317.4 471.5 Z" fill="#475569" opacity="0.9" stroke="#ffffff" stroke-width="2"/>
<path d="M 295.0 305.0 L 317.4 471.5 A 168.0 168.0 0 0 1 311.1 472.2 Z" fill="#059669" opacity="0.9" stroke="#ffffff" stroke-width="2"/>
<path d="M 295.0 305.0 L 311.1 472.2 A 168.0 168.0 0 0 1 305.0 472.7 Z" fill="#2563eb" opacity="0.9" stroke="#ffffff" stroke-width="2"/>
<path d="M 295.0 305.0 L 305.0 472.7 A 168.0 168.0 0 0 1 299.0 473.0 Z" fill="#16a34a" opacity="0.9" stroke="#ffffff" stroke-width="2"/>
<path d="M 295.0 305.0 L 299.0 473.0 A 168.0 168.0 0 1 1 295.0 137.0 Z" fill="#f59e0b" opacity="0.9" stroke="#ffffff" stroke-width="2"/>
<text x="190.8" y="306.2" text-anchor="middle" class="label" font-weight="700">50.38%</text>
<rect x="520" y="106" width="18" height="18" rx="4" fill="#2563eb" opacity="0.9"/>
<text x="548" y="120" class="label">1 沙宏志</text>
<text x="926" y="120" text-anchor="end" class="label">35.04%</text>
<rect x="520" y="140" width="18" height="18" rx="4" fill="#16a34a" opacity="0.9"/>
<text x="548" y="154" class="label">2 谢丽</text>
<text x="926" y="154" text-anchor="end" class="label">7.29%</text>
<rect x="520" y="174" width="18" height="18" rx="4" fill="#f59e0b" opacity="0.9"/>
<text x="548" y="188" class="label">3 张全</text>
<text x="926" y="188" text-anchor="end" class="label">2.11%</text>
<rect x="520" y="208" width="18" height="18" rx="4" fill="#7c3aed" opacity="0.9"/>
<text x="548" y="222" class="label">4 香港中央结算有限公司</text>
<text x="926" y="222" text-anchor="end" class="label">1.28%</text>
<rect x="520" y="242" width="18" height="18" rx="4" fill="#0891b2" opacity="0.9"/>
<text x="548" y="256" class="label">5 上海宽投资产管理有限公司-宽投勇者慕士塔格私</text>
<text x="926" y="256" text-anchor="end" class="label">0.75%</text>
<rect x="520" y="276" width="18" height="18" rx="4" fill="#db2777" opacity="0.9"/>
<text x="548" y="290" class="label">6 刘超</text>
<text x="926" y="290" text-anchor="end" class="label">0.74%</text>
<rect x="520" y="310" width="18" height="18" rx="4" fill="#475569" opacity="0.9"/>
<text x="548" y="324" class="label">7 上海宽投资产管理有限公司-宽投瑞阳私募证券投</text>
<text x="926" y="324" text-anchor="end" class="label">0.66%</text>
<rect x="520" y="344" width="18" height="18" rx="4" fill="#059669" opacity="0.9"/>
<text x="548" y="358" class="label">8 MORGANSTANLEY&amp;CO.INTER</text>
<text x="926" y="358" text-anchor="end" class="label">0.60%</text>
<rect x="520" y="378" width="18" height="18" rx="4" fill="#2563eb" opacity="0.9"/>
<text x="548" y="392" class="label">9 唐兵</text>
<text x="926" y="392" text-anchor="end" class="label">0.58%</text>
<rect x="520" y="412" width="18" height="18" rx="4" fill="#16a34a" opacity="0.9"/>
<text x="548" y="426" class="label">10 UBSAG</text>
<text x="926" y="426" text-anchor="end" class="label">0.57%</text>
<rect x="520" y="446" width="18" height="18" rx="4" fill="#f59e0b" opacity="0.9"/>
<text x="548" y="460" class="label">其他/未披露</text>
<text x="926" y="460" text-anchor="end" class="label">50.38%</text>
</svg>
