<svg xmlns="http://www.w3.org/2000/svg" width="980" height="560" viewBox="0 0 980 560" role="img">
<style>
  text { font-family: 'Noto Sans CJK SC','Microsoft YaHei','PingFang SC','WenQuanYi Micro Hei',Arial,sans-serif; fill: #0f172a; }
  .title { font-size: 24px; font-weight: 800; }
  .subtitle { font-size: 13px; fill: #64748b; }
  .label { font-size: 12px; fill: #0f172a; }
  .muted { font-size: 11px; fill: #64748b; }
  .axis { stroke: #e2e8f0; stroke-width: 1; }
</style>
<rect width="100%" height="100%" fill="#f8fafc"/>
<rect x="14" y="14" width="952" height="532" rx="18" fill="#ffffff"/>
<text x="42" y="52" class="title">300720 海川智能 十大流通股东占比</text>
<text x="42" y="76" class="subtitle">东方财富股东分析口径；饼图含前十大股东及其他/未披露占比。</text>
<path d="M 295.0 305.0 L 295.0 137.0 A 168.0 168.0 0 0 1 448.3 373.8 Z" fill="#2563eb" opacity="0.9" stroke="#ffffff" stroke-width="2"/>
<text x="382.4" y="248.4" text-anchor="middle" class="label" font-weight="700">31.71%</text>
<path d="M 295.0 305.0 L 448.3 373.8 A 168.0 168.0 0 0 1 364.2 458.1 Z" fill="#16a34a" opacity="0.9" stroke="#ffffff" stroke-width="2"/>
<text x="368.7" y="378.6" text-anchor="middle" class="label" font-weight="700">11.53%</text>
<path d="M 295.0 305.0 L 364.2 458.1 A 168.0 168.0 0 0 1 293.8 473.0 Z" fill="#f59e0b" opacity="0.9" stroke="#ffffff" stroke-width="2"/>
<text x="316.6" y="406.9" text-anchor="middle" class="label" font-weight="700">6.87%</text>
<path d="M 295.0 305.0 L 293.8 473.0 A 168.0 168.0 0 0 1 273.3 471.6 Z" fill="#7c3aed" opacity="0.9" stroke="#ffffff" stroke-width="2"/>
<path d="M 295.0 305.0 L 273.3 471.6 A 168.0 168.0 0 0 1 255.4 468.3 Z" fill="#0891b2" opacity="0.9" stroke="#ffffff" stroke-width="2"/>
<path d="M 295.0 305.0 L 255.4 468.3 A 168.0 168.0 0 0 1 243.7 465.0 Z" fill="#db2777" opacity="0.9" stroke="#ffffff" stroke-width="2"/>
<path d="M 295.0 305.0 L 243.7 465.0 A 168.0 168.0 0 0 1 233.6 461.4 Z" fill="#475569" opacity="0.9" stroke="#ffffff" stroke-width="2"/>
<path d="M 295.0 305.0 L 233.6 461.4 A 168.0 168.0 0 0 1 224.9 457.7 Z" fill="#059669" opacity="0.9" stroke="#ffffff" stroke-width="2"/>
<path d="M 295.0 305.0 L 224.9 457.7 A 168.0 168.0 0 0 1 216.7 453.6 Z" fill="#2563eb" opacity="0.9" stroke="#ffffff" stroke-width="2"/>
<path d="M 295.0 305.0 L 216.7 453.6 A 168.0 168.0 0 0 1 209.2 449.4 Z" fill="#16a34a" opacity="0.9" stroke="#ffffff" stroke-width="2"/>
<path d="M 295.0 305.0 L 209.2 449.4 A 168.0 168.0 0 0 1 295.0 137.0 Z" fill="#f59e0b" opacity="0.9" stroke="#ffffff" stroke-width="2"/>
<text x="194.6" y="277.4" text-anchor="middle" class="label" font-weight="700">41.47%</text>
<rect x="520" y="106" width="18" height="18" rx="4" fill="#2563eb" opacity="0.9"/>
<text x="548" y="120" class="label">1 苏州中晶智芯半导体合伙企业(有限合伙)</text>
<text x="926" y="120" text-anchor="end" class="label">31.71%</text>
<rect x="520" y="140" width="18" height="18" rx="4" fill="#16a34a" opacity="0.9"/>
<text x="548" y="154" class="label">2 郑锦康</text>
<text x="926" y="154" text-anchor="end" class="label">11.53%</text>
<rect x="520" y="174" width="18" height="18" rx="4" fill="#f59e0b" opacity="0.9"/>
<text x="548" y="188" class="label">3 梁俊</text>
<text x="926" y="188" text-anchor="end" class="label">6.87%</text>
<rect x="520" y="208" width="18" height="18" rx="4" fill="#7c3aed" opacity="0.9"/>
<text x="548" y="222" class="label">4 郑贻端</text>
<text x="926" y="222" text-anchor="end" class="label">1.94%</text>
<rect x="520" y="242" width="18" height="18" rx="4" fill="#0891b2" opacity="0.9"/>
<text x="548" y="256" class="label">5 张恩玖</text>
<text x="926" y="256" text-anchor="end" class="label">1.72%</text>
<rect x="520" y="276" width="18" height="18" rx="4" fill="#db2777" opacity="0.9"/>
<text x="548" y="290" class="label">6 MORGAN STANLEY &amp; CO.IN</text>
<text x="926" y="290" text-anchor="end" class="label">1.16%</text>
<rect x="520" y="310" width="18" height="18" rx="4" fill="#475569" opacity="0.9"/>
<text x="548" y="324" class="label">7 郑家虎</text>
<text x="926" y="324" text-anchor="end" class="label">1.01%</text>
<rect x="520" y="344" width="18" height="18" rx="4" fill="#059669" opacity="0.9"/>
<text x="548" y="358" class="label">8 中信证券资产管理(香港)有限公司-客户资金</text>
<text x="926" y="358" text-anchor="end" class="label">0.90%</text>
<rect x="520" y="378" width="18" height="18" rx="4" fill="#2563eb" opacity="0.9"/>
<text x="548" y="392" class="label">9 贰拾壹点私募基金管理(上海)有限公司-贰拾壹</text>
<text x="926" y="392" text-anchor="end" class="label">0.87%</text>
<rect x="520" y="412" width="18" height="18" rx="4" fill="#16a34a" opacity="0.9"/>
<text x="548" y="426" class="label">10 毛成辉</text>
<text x="926" y="426" text-anchor="end" class="label">0.82%</text>
<rect x="520" y="446" width="18" height="18" rx="4" fill="#f59e0b" opacity="0.9"/>
<text x="548" y="460" class="label">其他/未披露</text>
<text x="926" y="460" text-anchor="end" class="label">41.47%</text>
</svg>
