<svg xmlns="http://www.w3.org/2000/svg" width="980" height="560" viewBox="0 0 980 560" role="img">
<style>
  text { font-family: 'Noto Sans CJK SC','Microsoft YaHei','PingFang SC','WenQuanYi Micro Hei',Arial,sans-serif; fill: #0f172a; }
  .title { font-size: 24px; font-weight: 800; }
  .subtitle { font-size: 13px; fill: #64748b; }
  .label { font-size: 12px; fill: #0f172a; }
  .muted { font-size: 11px; fill: #64748b; }
  .axis { stroke: #e2e8f0; stroke-width: 1; }
</style>
<rect width="100%" height="100%" fill="#f8fafc"/>
<rect x="14" y="14" width="952" height="532" rx="18" fill="#ffffff"/>
<text x="42" y="52" class="title">301128 强瑞技术 十大流通股东占比</text>
<text x="42" y="76" class="subtitle">东方财富股东分析口径；饼图含前十大股东及其他/未披露占比。</text>
<path d="M 295.0 305.0 L 295.0 137.0 A 168.0 168.0 0 0 1 409.5 427.9 Z" fill="#2563eb" opacity="0.9" stroke="#ffffff" stroke-width="2"/>
<text x="391.9" y="266.8" text-anchor="middle" class="label" font-weight="700">38.06%</text>
<path d="M 295.0 305.0 L 409.5 427.9 A 168.0 168.0 0 0 1 385.3 446.7 Z" fill="#16a34a" opacity="0.9" stroke="#ffffff" stroke-width="2"/>
<path d="M 295.0 305.0 L 385.3 446.7 A 168.0 168.0 0 0 1 358.1 460.7 Z" fill="#f59e0b" opacity="0.9" stroke="#ffffff" stroke-width="2"/>
<path d="M 295.0 305.0 L 358.1 460.7 A 168.0 168.0 0 0 1 331.2 469.1 Z" fill="#7c3aed" opacity="0.9" stroke="#ffffff" stroke-width="2"/>
<path d="M 295.0 305.0 L 331.2 469.1 A 168.0 168.0 0 0 1 304.7 472.7 Z" fill="#0891b2" opacity="0.9" stroke="#ffffff" stroke-width="2"/>
<path d="M 295.0 305.0 L 304.7 472.7 A 168.0 168.0 0 0 1 283.4 472.6 Z" fill="#db2777" opacity="0.9" stroke="#ffffff" stroke-width="2"/>
<path d="M 295.0 305.0 L 283.4 472.6 A 168.0 168.0 0 0 1 271.8 471.4 Z" fill="#475569" opacity="0.9" stroke="#ffffff" stroke-width="2"/>
<path d="M 295.0 305.0 L 271.8 471.4 A 168.0 168.0 0 0 1 261.4 469.6 Z" fill="#059669" opacity="0.9" stroke="#ffffff" stroke-width="2"/>
<path d="M 295.0 305.0 L 261.4 469.6 A 168.0 168.0 0 0 1 252.6 467.6 Z" fill="#2563eb" opacity="0.9" stroke="#ffffff" stroke-width="2"/>
<path d="M 295.0 305.0 L 252.6 467.6 A 168.0 168.0 0 0 1 245.1 465.4 Z" fill="#16a34a" opacity="0.9" stroke="#ffffff" stroke-width="2"/>
<path d="M 295.0 305.0 L 245.1 465.4 A 168.0 168.0 0 0 1 295.0 137.0 Z" fill="#f59e0b" opacity="0.9" stroke="#ffffff" stroke-width="2"/>
<text x="192.0" y="289.3" text-anchor="middle" class="label" font-weight="700">45.20%</text>
<rect x="520" y="106" width="18" height="18" rx="4" fill="#2563eb" opacity="0.9"/>
<text x="548" y="120" class="label">1 宁阳县强瑞科技发展有限公司</text>
<text x="926" y="120" text-anchor="end" class="label">38.06%</text>
<rect x="520" y="140" width="18" height="18" rx="4" fill="#16a34a" opacity="0.9"/>
<text x="548" y="154" class="label">2 申觉中</text>
<text x="926" y="154" text-anchor="end" class="label">2.91%</text>
<rect x="520" y="174" width="18" height="18" rx="4" fill="#f59e0b" opacity="0.9"/>
<text x="548" y="188" class="label">3 中信银行股份有限公司-中欧信息科技混合型发起</text>
<text x="926" y="188" text-anchor="end" class="label">2.90%</text>
<rect x="520" y="208" width="18" height="18" rx="4" fill="#7c3aed" opacity="0.9"/>
<text x="548" y="222" class="label">4 泰安市强瑞创业投资合伙企业(有限合伙)</text>
<text x="926" y="222" text-anchor="end" class="label">2.68%</text>
<rect x="520" y="242" width="18" height="18" rx="4" fill="#0891b2" opacity="0.9"/>
<text x="548" y="256" class="label">5 尹高斌</text>
<text x="926" y="256" text-anchor="end" class="label">2.54%</text>
<rect x="520" y="276" width="18" height="18" rx="4" fill="#db2777" opacity="0.9"/>
<text x="548" y="290" class="label">6 刘刚</text>
<text x="926" y="290" text-anchor="end" class="label">2.02%</text>
<rect x="520" y="310" width="18" height="18" rx="4" fill="#475569" opacity="0.9"/>
<text x="548" y="324" class="label">7 新余善思投资管理中心(有限合伙)-善思君汉2</text>
<text x="926" y="324" text-anchor="end" class="label">1.10%</text>
<rect x="520" y="344" width="18" height="18" rx="4" fill="#059669" opacity="0.9"/>
<text x="548" y="358" class="label">8 平安基金-中国平安人寿保险股份有限公司-分红</text>
<text x="926" y="358" text-anchor="end" class="label">1.00%</text>
<rect x="520" y="378" width="18" height="18" rx="4" fill="#2563eb" opacity="0.9"/>
<text x="548" y="392" class="label">9 周雪莹</text>
<text x="926" y="392" text-anchor="end" class="label">0.85%</text>
<rect x="520" y="412" width="18" height="18" rx="4" fill="#16a34a" opacity="0.9"/>
<text x="548" y="426" class="label">10 刘冰</text>
<text x="926" y="426" text-anchor="end" class="label">0.74%</text>
<rect x="520" y="446" width="18" height="18" rx="4" fill="#f59e0b" opacity="0.9"/>
<text x="548" y="460" class="label">其他/未披露</text>
<text x="926" y="460" text-anchor="end" class="label">45.20%</text>
</svg>
