<svg xmlns="http://www.w3.org/2000/svg" width="980" height="560" viewBox="0 0 980 560" role="img">
<style>
  text { font-family: 'Noto Sans CJK SC','Microsoft YaHei','PingFang SC','WenQuanYi Micro Hei',Arial,sans-serif; fill: #0f172a; }
  .title { font-size: 24px; font-weight: 800; }
  .subtitle { font-size: 13px; fill: #64748b; }
  .label { font-size: 12px; fill: #0f172a; }
  .muted { font-size: 11px; fill: #64748b; }
  .axis { stroke: #e2e8f0; stroke-width: 1; }
</style>
<rect width="100%" height="100%" fill="#f8fafc"/>
<rect x="14" y="14" width="952" height="532" rx="18" fill="#ffffff"/>
<text x="42" y="52" class="title">300903 科翔股份 十大流通股东占比</text>
<text x="42" y="76" class="subtitle">东方财富股东分析口径；饼图含前十大股东及其他/未披露占比。</text>
<path d="M 295.0 305.0 L 295.0 137.0 A 168.0 168.0 0 0 1 352.5 147.2 Z" fill="#2563eb" opacity="0.9" stroke="#ffffff" stroke-width="2"/>
<text x="313.1" y="202.4" text-anchor="middle" class="label" font-weight="700">5.56%</text>
<path d="M 295.0 305.0 L 352.5 147.2 A 168.0 168.0 0 0 1 396.0 170.8 Z" fill="#16a34a" opacity="0.9" stroke="#ffffff" stroke-width="2"/>
<path d="M 295.0 305.0 L 396.0 170.8 A 168.0 168.0 0 0 1 423.8 197.2 Z" fill="#f59e0b" opacity="0.9" stroke="#ffffff" stroke-width="2"/>
<path d="M 295.0 305.0 L 423.8 197.2 A 168.0 168.0 0 0 1 442.8 225.2 Z" fill="#7c3aed" opacity="0.9" stroke="#ffffff" stroke-width="2"/>
<path d="M 295.0 305.0 L 442.8 225.2 A 168.0 168.0 0 0 1 454.3 251.5 Z" fill="#0891b2" opacity="0.9" stroke="#ffffff" stroke-width="2"/>
<path d="M 295.0 305.0 L 454.3 251.5 A 168.0 168.0 0 0 1 460.0 273.6 Z" fill="#db2777" opacity="0.9" stroke="#ffffff" stroke-width="2"/>
<path d="M 295.0 305.0 L 460.0 273.6 A 168.0 168.0 0 0 1 462.4 291.2 Z" fill="#475569" opacity="0.9" stroke="#ffffff" stroke-width="2"/>
<path d="M 295.0 305.0 L 462.4 291.2 A 168.0 168.0 0 0 1 463.0 308.2 Z" fill="#059669" opacity="0.9" stroke="#ffffff" stroke-width="2"/>
<path d="M 295.0 305.0 L 463.0 308.2 A 168.0 168.0 0 0 1 462.1 322.5 Z" fill="#2563eb" opacity="0.9" stroke="#ffffff" stroke-width="2"/>
<path d="M 295.0 305.0 L 462.1 322.5 A 168.0 168.0 0 0 1 460.3 335.2 Z" fill="#16a34a" opacity="0.9" stroke="#ffffff" stroke-width="2"/>
<path d="M 295.0 305.0 L 460.3 335.2 A 168.0 168.0 0 1 1 295.0 137.0 Z" fill="#f59e0b" opacity="0.9" stroke="#ffffff" stroke-width="2"/>
<text x="215.0" y="371.7" text-anchor="middle" class="label" font-weight="700">72.12%</text>
<rect x="520" y="106" width="18" height="18" rx="4" fill="#2563eb" opacity="0.9"/>
<text x="548" y="120" class="label">1 深圳市科翔资本管理有限公司</text>
<text x="926" y="120" text-anchor="end" class="label">5.56%</text>
<rect x="520" y="140" width="18" height="18" rx="4" fill="#16a34a" opacity="0.9"/>
<text x="548" y="154" class="label">2 郑晓蓉</text>
<text x="926" y="154" text-anchor="end" class="label">4.71%</text>
<rect x="520" y="174" width="18" height="18" rx="4" fill="#f59e0b" opacity="0.9"/>
<text x="548" y="188" class="label">3 谭东</text>
<text x="926" y="188" text-anchor="end" class="label">3.64%</text>
<rect x="520" y="208" width="18" height="18" rx="4" fill="#7c3aed" opacity="0.9"/>
<text x="548" y="222" class="label">4 伍伯宏</text>
<text x="926" y="222" text-anchor="end" class="label">3.21%</text>
<rect x="520" y="242" width="18" height="18" rx="4" fill="#0891b2" opacity="0.9"/>
<text x="548" y="256" class="label">5 珠海横琴科翔富鸿电子合伙企业(有限合伙)</text>
<text x="926" y="256" text-anchor="end" class="label">2.72%</text>
<rect x="520" y="276" width="18" height="18" rx="4" fill="#db2777" opacity="0.9"/>
<text x="548" y="290" class="label">6 香港中央结算有限公司</text>
<text x="926" y="290" text-anchor="end" class="label">2.17%</text>
<rect x="520" y="310" width="18" height="18" rx="4" fill="#475569" opacity="0.9"/>
<text x="548" y="324" class="label">7 陈焕先</text>
<text x="926" y="324" text-anchor="end" class="label">1.68%</text>
<rect x="520" y="344" width="18" height="18" rx="4" fill="#059669" opacity="0.9"/>
<text x="548" y="358" class="label">8 潘宇红</text>
<text x="926" y="358" text-anchor="end" class="label">1.62%</text>
<rect x="520" y="378" width="18" height="18" rx="4" fill="#2563eb" opacity="0.9"/>
<text x="548" y="392" class="label">9 张新华</text>
<text x="926" y="392" text-anchor="end" class="label">1.35%</text>
<rect x="520" y="412" width="18" height="18" rx="4" fill="#16a34a" opacity="0.9"/>
<text x="548" y="426" class="label">10 卢华升</text>
<text x="926" y="426" text-anchor="end" class="label">1.22%</text>
<rect x="520" y="446" width="18" height="18" rx="4" fill="#f59e0b" opacity="0.9"/>
<text x="548" y="460" class="label">其他/未披露</text>
<text x="926" y="460" text-anchor="end" class="label">72.12%</text>
</svg>
